<svg xmlns="http://www.w3.org/2000/svg" width="50" height="50" viewBox="0 0 50 50" fill="none"><path d="M39.2857 0H10.7143C4.79695 0 0 4.79695 0 10.7143V39.2857C0 45.203 4.79695 50 10.7143 50H39.2857C45.2031 50 50 45.203 50 39.2857V10.7143C50 4.79695 45.203 0 39.2857 0Z" fill="white"></path><path d="M10.7143 0.5H39.2857C44.9269 0.5 49.5 5.07309 49.5 10.7143V39.2857C49.5 44.9269 44.9269 49.5 39.2857 49.5H10.7143C5.07309 49.5 0.5 44.9269 0.5 39.2857V10.7143C0.5 5.07309 5.07309 0.5 10.7143 0.5Z" stroke="black" stroke-opacity="0.1"></path><path d="M10.2629 15.7598C10.0943 16.0526 10 16.3898 10 16.7398V32.2998C10 32.6498 10.0929 32.9869 10.2629 33.2798L25.4357 24.5198L10.2629 15.7598Z" fill="url(#paint0_linear_18017_153825)"></path><path d="M25.4356 24.52V7C25.097 7 24.7584 7.08714 24.4556 7.26286L10.9798 15.0429C10.677 15.2186 10.4313 15.4671 10.2627 15.76L25.4356 24.52Z" fill="url(#paint1_linear_18017_153825)"></path><path d="M40.6084 15.76C40.4398 15.4671 40.1941 15.2171 39.8913 15.0429L26.4155 7.26286C26.1127 7.08714 25.7741 7 25.4355 7V24.52L40.6084 15.76Z" fill="url(#paint2_linear_18017_153825)"></path><path d="M40.8713 16.7398C40.8713 16.3898 40.7784 16.0526 40.6084 15.7598L25.4355 24.5198L40.6084 33.2798C40.777 32.9869 40.8713 32.6498 40.8713 32.2998V16.7398Z" fill="url(#paint3_linear_18017_153825)"></path><path d="M25.4355 42.0395C25.7741 42.0395 26.1127 41.9524 26.4155 41.7767L39.8913 33.9967C40.1941 33.821 40.4398 33.5724 40.6084 33.2795L25.4355 24.5195V42.0395Z" fill="url(#paint4_linear_18017_153825)"></path><path d="M25.4356 24.5195L10.2627 33.2795C10.4313 33.5724 10.677 33.8224 10.9798 33.9967L24.4556 41.7767C24.7584 41.9524 25.097 42.0395 25.4356 42.0395V24.5195Z" fill="url(#paint5_linear_18017_153825)"></path><defs><linearGradient id="paint0_linear_18017_153825" x1="8.69714" y1="24.7812" x2="25.7114" y2="21.9398" gradientUnits="userSpaceOnUse"><stop stop-color="#2CC8FF"></stop><stop offset="1" stop-color="#0B88FF"></stop></linearGradient><linearGradient id="paint1_linear_18017_153825" x1="17.3884" y1="9.12714" x2="21.177" y2="27.64" gradientUnits="userSpaceOnUse"><stop stop-color="#77FD6B"></stop><stop offset="0.5" stop-color="#4CEE63"></stop><stop offset="1" stop-color="#22DF5B"></stop></linearGradient><linearGradient id="paint2_linear_18017_153825" x1="33.2684" y1="9.80857" x2="31.2541" y2="22.6614" gradientUnits="userSpaceOnUse"><stop stop-color="#39F36D"></stop><stop offset="0.5" stop-color="#2CE765"></stop><stop offset="1" stop-color="#22DF5B"></stop></linearGradient><linearGradient id="paint3_linear_18017_153825" x1="25.3513" y1="21.4198" x2="40.4598" y2="24.4898" gradientUnits="userSpaceOnUse"><stop stop-color="#6040FF"></stop><stop offset="0.5" stop-color="#5B53FF"></stop><stop offset="1" stop-color="#4A6AFF"></stop></linearGradient><linearGradient id="paint4_linear_18017_153825" x1="35.1355" y1="38.9067" x2="26.7184" y2="33.9424" gradientUnits="userSpaceOnUse"><stop stop-color="#275FFF"></stop><stop offset="1" stop-color="#6040FF"></stop></linearGradient><linearGradient id="paint5_linear_18017_153825" x1="14.4027" y1="37.2938" x2="26.9556" y2="32.7267" gradientUnits="userSpaceOnUse"><stop stop-color="#27A2FF"></stop><stop offset="0.5" stop-color="#128FFF"></stop><stop offset="1" stop-color="#0B88FF"></stop></linearGradient></defs></svg>